<?xml version="1.0" encoding="UTF-8"?> <svg xmlns="http://www.w3.org/2000/svg" xmlns:xlink="http://www.w3.org/1999/xlink" width="70px" height="70px" viewBox="0 0 70 70"><!-- Generator: Sketch 51.3 (57544) - http://www.bohemiancoding.com/sketch --><title>Artboard 3</title><desc>Created with Sketch.</desc><defs></defs><g id="Artboard-3" stroke="none" stroke-width="1" fill="none" fill-rule="evenodd"><g id="Group-2"><path d="M21.9281967,42.2218519 L23.4251618,42.2218519 L25.6497975,42.2218519 C25.6557438,42.2925926 25.6598318,42.3614815 25.6598318,42.432963 C25.6598318,43.6496296 24.7448546,44.652963 23.5634118,44.8007407 L21.8204212,44.8007407 L21.8204212,44.8218519 C21.7282545,44.8144444 21.6353446,44.8107407 21.5416913,44.8107407 C19.270229,44.8107407 17.4291255,46.6459259 17.4291255,48.9096296 C17.4291255,51.172963 19.270229,53.0081481 21.5416913,53.0081481 C21.6353446,53.0081481 21.7282545,53.002963 21.8204212,52.9981481 L21.8204212,53.0166667 L23.4500616,53.0166667 C24.348315,53.1281481 25.0856483,53.7525926 25.3580603,54.5866667 C25.4312733,54.8114815 25.4717821,55.0518519 25.4717821,55.3 C25.4717821,55.3685185 25.467694,55.4366667 25.4621194,55.5037037 L23.3170146,55.5037037 L22.1166181,55.5037037 C21.9278251,55.5196296 21.7353157,55.5285185 21.5416913,55.5285185 C20.320483,55.5285185 19.1754608,55.2022222 18.1895005,54.6314815 L18.1891288,54.6307407 C18.1575394,54.6118519 18.1266933,54.5922222 18.0947323,54.572963 C17.6394736,54.287037 15.6582619,52.9148148 15.0383667,50.4018519 C14.9216718,49.91 14.859608,49.397037 14.859608,48.8696296 C14.859608,45.1922222 17.8520515,42.2111111 21.5416913,42.2111111 C21.671022,42.2111111 21.799981,42.2151852 21.9281967,42.2218519" id="Fill-2" fill="#888888"></path><path d="M20.8633744,47.6211481 C20.1713811,47.6211481 19.6105767,48.1796667 19.6105767,48.8696667 C19.6105767,49.5589259 20.1713811,50.1181852 20.8633744,50.1181852 L23.8364927,50.1181852 L23.8364927,50.0892963 C24.8685364,49.925963 25.6597575,49.0367037 25.6597575,47.9618889 C25.6597575,47.8452222 25.647865,47.7326296 25.6300263,47.6211481 L23.8364927,47.6211481 L20.8633744,47.6211481 Z" id="Fill-4" fill="#888888"></path><path d="M48.7439769,42.2218519 L50.2428001,42.2218519 L52.4659493,42.2218519 C52.4718956,42.2925926 52.4759836,42.3614815 52.4759836,42.432963 C52.4759836,43.6496296 51.5617497,44.652963 50.3803069,44.8007407 L48.6369446,44.8007407 L48.6369446,44.8218519 C48.5444063,44.8144444 48.451868,44.8107407 48.3582148,44.8107407 C46.0871241,44.8107407 44.2456489,46.6459259 44.2456489,48.9096296 C44.2456489,51.172963 46.0871241,53.0081481 48.3582148,53.0081481 C48.451868,53.0081481 48.5444063,53.002963 48.6369446,52.9981481 L48.6369446,53.0166667 L50.2673284,53.0166667 C51.1648384,53.1281481 51.9025434,53.7525926 52.175327,54.5866667 C52.2481684,54.8114815 52.2886772,55.0518519 52.2886772,55.3 C52.2886772,55.3685185 52.2853324,55.4366667 52.2790145,55.5037037 L50.133538,55.5037037 L48.9342565,55.5037037 C48.7439769,55.5196296 48.5522108,55.5285185 48.3582148,55.5285185 C47.1373781,55.5285185 45.9919843,55.2022222 45.0075105,54.6314815 L45.0063956,54.6307407 C44.9744345,54.6118519 44.9432168,54.5922222 44.9116274,54.572963 C44.4563687,54.287037 42.4744137,52.9148148 41.8545185,50.4018519 C41.7389386,49.91 41.6761315,49.397037 41.6761315,48.8696296 C41.6761315,45.1922222 44.6682034,42.2111111 48.3582148,42.2111111 C48.4875454,42.2111111 48.6161328,42.2151852 48.7439769,42.2218519" id="Fill-6" fill="#888888"></path><path d="M7.18093542,52.5235185 L7.18093542,52.5309259 L5.18039845,52.5309259 L5.18039845,52.5364815 C5.18077009,52.5409259 5.18225665,52.5446296 5.18225665,52.5472222 L3.18766593,52.5472222 L3.18766593,51.2461111 C3.18952413,51.2461111 3.19063905,51.2453704 3.1921256,51.2453704 L3.1921256,48.7857407 C3.1921256,46.7175926 4.87491055,45.0409259 6.94977547,45.0409259 C9.02538367,45.0409259 10.707797,46.7175926 10.707797,48.7857407 C10.707797,50.777963 9.14876808,52.405 7.18093542,52.5235185 M6.95163367,42.2109259 C3.31105034,42.2109259 0.359858804,45.1524074 0.359858804,48.7801852 L0.359858804,51.9283333 L0.356514046,51.9283333 L0.356514046,53.0927778 C0.355399126,53.095 0.353912567,53.095 0.352797648,53.095 L0.352797648,55.3772222 L0.356514046,55.3772222 L0.356514046,59.2827778 C0.362831922,59.2827778 0.368778159,59.2835185 0.374352755,59.2835185 C0.374352755,59.2835185 1.34507587,59.2887037 2.14781781,58.7424074 C2.71308192,58.3098148 3.09921566,57.655 3.1724287,56.9087037 L3.18543609,56.9087037 L3.18543609,55.3772222 L3.85029966,55.3772222 C3.84918474,55.372037 3.84918474,55.3657407 3.84844147,55.3605556 L3.84844147,55.3490741 L7.3563494,55.3490741 L7.3563494,55.3361111 C10.8085114,55.1283333 13.5430369,52.2724074 13.5430369,48.7801852 C13.5430369,45.1524074 10.5914737,42.2109259 6.95163367,42.2109259" id="Fill-8" fill="#888888"></path><path d="M37.661567,52.985037 L35.4752101,52.985037 C35.4752101,52.9813333 35.4755818,52.9783704 35.4763251,52.975037 L35.4763251,52.9676296 L33.2829071,52.9676296 L33.2829071,52.9591111 C31.1251665,52.8294815 29.4159951,51.0457778 29.4159951,48.860963 C29.4159951,46.5931852 31.2604433,44.755037 33.5359937,44.755037 C35.8115442,44.755037 37.656364,46.5931852 37.656364,48.860963 L37.656364,51.5576296 C37.6585939,51.5576296 37.6593372,51.5576296 37.661567,51.5583704 L37.661567,52.985037 Z M40.2032115,53.218 L40.2032115,48.8561481 L40.2028399,48.8561481 C40.2028399,45.1854074 37.2174575,42.2102222 33.5352505,42.2102222 C29.8523002,42.2102222 26.8669178,45.1854074 26.8669178,48.8561481 C26.8669178,52.3883704 29.633776,55.2761481 33.1253318,55.4872593 L33.1253318,55.4994815 L36.6737485,55.4994815 L36.6737485,55.5117037 C36.6730052,55.5168889 36.6730052,55.5228148 36.6722619,55.5283704 L40.209901,55.5283704 L40.209901,53.2202222 C40.2076712,53.2194815 40.2054413,53.2187407 40.2032115,53.218 Z" id="Fill-10" fill="#888888"></path><path d="M60.3464595,42.2044815 L61.8434245,42.2044815 L64.0680603,42.2044815 C64.0740065,42.2733704 64.0784662,42.3441111 64.0784662,42.4148519 C64.0784662,43.6318889 63.1638607,44.6352222 61.9820462,44.7833704 L60.2386839,44.7833704 L60.2386839,44.803 C60.1465173,44.7970741 60.053979,44.7926296 59.9599541,44.7926296 C57.689235,44.7926296 55.8477599,46.6285556 55.8477599,48.8915185 C55.8477599,51.1548519 57.689235,52.990037 59.9599541,52.990037 C60.053979,52.990037 60.1465173,52.9848519 60.2386839,52.9792963 L60.2386839,52.9981852 L61.868696,52.9981852 C62.7669494,53.1092963 63.5042827,53.7344815 63.7766947,54.5692963 C63.8502794,54.7941111 63.8907881,55.0322593 63.8907881,55.2826296 C63.8907881,55.3511481 63.8863284,55.4185556 63.8811255,55.4855926 L61.735649,55.4855926 L60.5356241,55.4855926 C60.3460878,55.5015185 60.1543217,55.5104074 59.9599541,55.5104074 C58.7391174,55.5104074 57.5944669,55.1841111 56.6081349,54.6126296 L56.6077632,54.6126296 C56.5761739,54.5944815 56.5453278,54.5741111 56.5137384,54.5548519 C56.0573647,54.2681852 54.0757814,52.8967037 53.4570011,50.3844815 C53.3399346,49.8918889 53.2782424,49.3789259 53.2782424,48.8515185 C53.2782424,45.1741111 56.2699427,42.193 59.9599541,42.193 C60.090028,42.193 60.2182437,42.1967037 60.3464595,42.2044815" id="Fill-12" fill="#888888"></path><path d="M59.2819716,47.6030741 C58.5899784,47.6030741 58.0291739,48.1615926 58.0291739,48.8515926 C58.0291739,49.5415926 58.5899784,50.1001111 59.2819716,50.1001111 L62.2543466,50.1001111 L62.2543466,50.0712222 C63.2875052,49.9071481 64.0783547,49.0186296 64.0783547,47.9430741 C64.0783547,47.8271481 64.065719,47.7145556 64.0478802,47.6030741 L62.2543466,47.6030741 L59.2819716,47.6030741 Z" id="Fill-14" fill="#888888"></path><path d="M64.8133839,47.6023704 C64.8133839,47.6023704 64.2715331,51.284963 67.637103,51.284963 C67.637103,51.284963 68.198279,47.6023704 64.8133839,47.6023704" id="Fill-16" fill="#888888"></path><path d="M64.8515141,51.8645185 C64.8515141,51.8645185 64.3100349,55.5463704 67.6756048,55.5463704 C67.6756048,55.5463704 68.235666,51.8645185 64.8515141,51.8645185" id="Fill-18" fill="#888888"></path><path d="M15.9039158,64.0408605 C15.9039158,64.1249274 15.9074158,64.2085541 15.9119158,64.2917407 L15.9119158,63.7917407 C15.9074158,63.8740471 15.9039158,63.9576738 15.9039158,64.0408605" id="Fill-30" fill="#888888"></path><g id="Group" transform="translate(0.000000, 55.000000)" fill="#888888"><path d="M12.0724954,4.13085185 L12.8919612,4.13085185 L14.1087098,4.13085185 C14.1124262,4.16974074 14.114656,4.20825926 14.114656,4.24714815 C14.114656,4.91196296 13.613314,5.46196296 12.9677757,5.54159259 L12.014148,5.54159259 L12.014148,5.55307407 C11.963605,5.55011111 11.913062,5.54714815 11.861404,5.54714815 C10.6193839,5.54714815 9.61149677,6.55196296 9.61149677,7.78974074 C9.61149677,9.02825926 10.6193839,10.0315926 11.861404,10.0315926 C11.913062,10.0315926 11.963605,10.0293704 12.014148,10.0256667 L12.014148,10.0356667 L12.9053402,10.0356667 C13.396648,10.0971481 13.8002488,10.4386296 13.9500196,10.8952963 C13.9894134,11.0182593 14.0117118,11.1497407 14.0117118,11.2856667 C14.0117118,11.3227037 14.009482,11.3604815 14.0061372,11.3964074 L12.8328704,11.3964074 L12.1758113,11.3964074 C12.0724954,11.406037 11.9673214,11.4101111 11.861404,11.4101111 C11.193939,11.4101111 10.5677259,11.2323333 10.0284766,10.9197407 L10.0277333,10.9182593 C10.0102663,10.9097407 9.99354247,10.8978889 9.9760754,10.8871481 C9.72744839,10.7315926 8.64263185,9.98011111 8.30443965,8.60492593 C8.24051761,8.33714815 8.20669839,8.05677778 8.20669839,7.76788889 C8.20669839,5.75640741 9.84265672,4.12566667 11.861404,4.12566667 C11.9327589,4.12566667 12.0026272,4.12714815 12.0724954,4.13085185" id="Fill-20"></path><path d="M11.4906933,7.08514815 C11.1112491,7.08514815 10.8057612,7.38959259 10.8057612,7.76811111 C10.8057612,8.14551852 11.1112491,8.45033333 11.4906933,8.45033333 L13.116989,8.45033333 L13.116989,8.43514815 C13.6818815,8.34588889 14.1148419,7.85922222 14.1148419,7.27107407 C14.1148419,7.20737037 14.1077807,7.14514815 14.0981181,7.08514815 L13.116989,7.08514815 L11.4906933,7.08514815 Z" id="Fill-22"></path><path d="M26.6676817,4.13085185 L27.4871474,4.13085185 L28.7031528,4.13085185 C28.7064976,4.16974074 28.7090991,4.20825926 28.7090991,4.24714815 C28.7090991,4.91196296 28.2085003,5.46196296 27.5625903,5.54159259 L26.6082194,5.54159259 L26.6082194,5.55307407 C26.558048,5.55011111 26.5078766,5.54714815 26.456962,5.54714815 C25.2138269,5.54714815 24.2063114,6.55196296 24.2063114,7.78974074 C24.2063114,9.02825926 25.2138269,10.0315926 26.456962,10.0315926 C26.5078766,10.0315926 26.558048,10.0293704 26.6082194,10.0256667 L26.6082194,10.0356667 L27.5001548,10.0356667 C27.9914626,10.0971481 28.3950634,10.4386296 28.5444626,10.8952963 C28.5842281,11.0182593 28.6057832,11.1497407 28.6057832,11.2856667 C28.6057832,11.3227037 28.6042966,11.3604815 28.6005802,11.3964074 L27.4280567,11.3964074 L26.7706259,11.3964074 C26.6676817,11.406037 26.5625077,11.4101111 26.456962,11.4101111 C25.7887536,11.4101111 25.1617973,11.2323333 24.6229196,10.9197407 L24.6229196,10.9182593 C24.6054526,10.9097407 24.5883571,10.8978889 24.5701468,10.8871481 C24.3215198,10.7315926 23.2378181,9.98011111 22.898511,8.60492593 C22.8349606,8.33714815 22.8011414,8.05677778 22.8011414,7.76788889 C22.8011414,5.75640741 24.4374714,4.12566667 26.456962,4.12566667 C26.5268302,4.12566667 26.5974418,4.12714815 26.6676817,4.13085185" id="Fill-24"></path><path d="M26.0855452,7.08514815 C25.7064726,7.08514815 25.3998698,7.38959259 25.3998698,7.76811111 C25.3998698,8.14551852 25.7064726,8.45033333 26.0855452,8.45033333 L27.7114692,8.45033333 L27.7114692,8.43514815 C28.2763617,8.34588889 28.709322,7.85922222 28.709322,7.27107407 C28.709322,7.20737037 28.7018892,7.14514815 28.6929699,7.08514815 L27.7114692,7.08514815 L26.0855452,7.08514815 Z" id="Fill-26"></path><path d="M5.06177103,9.8122963 C5.06177103,9.81007407 5.06177103,9.80785185 5.06214267,9.80637037 L5.06214267,9.80303704 L3.86248945,9.80303704 L3.86248945,9.79785185 C2.68178985,9.72637037 1.74674415,8.75044444 1.74674415,7.556 C1.74674415,6.31562963 2.75574617,5.31007407 4.00111109,5.31007407 C5.24536109,5.31007407 6.2543631,6.31562963 6.2543631,7.556 L6.25547802,7.556 L6.25547802,9.03192593 L6.25659294,9.03192593 L6.25659294,9.8122963 L5.06177103,9.8122963 Z M7.64726902,9.9397037 L7.64726902,7.5522963 C7.64726902,5.54525926 6.01465544,3.91822222 3.99999617,3.91822222 C1.98570853,3.91822222 0.35272332,5.54525926 0.35272332,7.5522963 C0.35272332,9.48525926 1.86529724,11.0652593 3.77589738,11.1800741 L3.77589738,11.1882222 L5.71697198,11.1882222 L5.71697198,11.1937778 C5.71660034,11.1982222 5.71660034,11.2004444 5.7162287,11.2041481 L6.23689603,11.2041481 C6.23726767,11.2111852 6.23726767,11.2178519 6.23726767,11.2248889 C6.23726767,12.4641481 5.22975222,13.4667407 3.98847534,13.4667407 C3.93644577,13.4667407 3.88553112,13.4645185 3.83535974,13.4619259 L3.83535974,13.4719259 L2.9437959,13.4719259 C2.4524881,13.5334074 2.04925894,13.8748889 1.90023138,14.3311852 C1.85972265,14.4534074 1.8377959,14.5845185 1.8377959,14.7211852 C1.8377959,14.7593333 1.8396541,14.7956296 1.84299886,14.8326667 L3.01700894,14.8326667 L3.67369644,14.8326667 C3.7770123,14.8404444 3.88218636,14.8456296 3.98847534,14.8456296 C4.65594039,14.8456296 5.28178179,14.6667407 5.8217744,14.3552593 L5.8217744,14.3545185 C5.8396131,14.3448889 5.85596526,14.3348889 5.87343233,14.3241481 C6.12243098,14.1663704 7.20687587,13.416 7.54543972,12.0419259 C7.60899012,11.7734074 7.64280934,11.4919259 7.64280934,11.2041481 L7.65135706,11.2041481 L7.65135706,9.94044444 C7.65024214,9.94044444 7.64875558,9.9397037 7.64726902,9.9397037 Z" id="Fill-28"></path><path d="M22.1328959,8.54492593 L22.1328959,7.89011111 C22.1418153,7.78677778 22.1373556,7.68196296 22.1373556,7.57714815 C22.1373556,6.91085185 21.9675162,6.28566667 21.6545955,5.75048148 L21.6545955,5.74974074 C21.6438179,5.73159259 21.6326688,5.71418519 21.6226345,5.69751852 C21.4650592,5.449 20.712117,4.369 19.3329618,4.03085185 C19.0631513,3.96825926 18.7810767,3.93418519 18.4919409,3.93418519 C16.4735653,3.93418519 14.8368636,5.56455556 14.8368636,7.57714815 C14.8368636,7.64714815 14.8390935,7.71751852 14.8431815,7.78677778 L14.8431815,8.60418519 L14.8431815,8.79159259 L14.8431815,9.2127037 L14.8431815,9.81677778 L14.8431815,10.0293704 L14.8431815,11.2415926 C14.8814604,11.2445556 14.920111,11.2467778 14.9587615,11.2467778 C15.6269698,11.2467778 16.1781116,10.7482593 16.2580142,10.1045556 L16.2580142,9.1527037 L16.2609873,9.14455556 C16.2580142,9.09455556 16.2576425,9.05196296 16.2576425,9.00122222 C16.2576425,8.92307407 16.2539261,8.8452963 16.2609873,8.76788889 L16.2765962,7.52196296 L16.2769678,7.52196296 C16.2803126,7.22751852 16.3408899,6.94492593 16.4482937,6.68862963 C16.7849994,5.88159259 17.5840249,5.31492593 18.5157259,5.31492593 C19.5295592,5.31492593 20.3854456,5.98640741 20.661574,6.90714815 C20.7199214,7.10196296 20.7518825,7.30862963 20.7544839,7.52196296 L20.7619167,7.52196296 L20.767863,7.52196296 L20.767863,7.729 L20.767863,8.61640741 L20.767863,9.1527037 L20.767863,10.0423333 C20.8295552,10.531963 21.1714638,10.9341852 21.6300673,11.0834444 C21.7534517,11.1230741 21.8853838,11.1449259 22.0221472,11.1449259 C22.0593112,11.1449259 22.0964752,11.1434444 22.1328959,11.139 L22.1328959,9.96937037 L22.1328959,9.71381481 L22.1328959,9.31603704 C22.1418153,9.21196296 22.1325243,9.10788889 22.1325243,9.00122222 C22.1325243,8.89788889 22.1418153,8.79381481 22.1328959,8.69159259 L22.1328959,8.54492593 Z" id="Fill-32"></path><path d="M35.5405816,4.13085185 L34.3238329,4.13085185 L33.6745782,4.13085185 C33.548964,4.11862963 33.4226065,4.11196296 33.2936474,4.11196296 C31.2752718,4.11196296 29.6389418,5.7427037 29.6389418,7.75344444 L29.6389418,7.76085185 L29.6389418,7.76788889 C29.6389418,7.83974074 29.6408,7.90974074 29.6456313,7.98011111 L29.6456313,8.78159259 L29.6456313,8.969 L29.6456313,9.38974074 L29.6456313,9.99307407 L29.6456313,10.2064074 L29.6456313,11.419 C29.6835386,11.421963 29.7218175,11.4238148 29.7600964,11.4238148 C30.4283047,11.4238148 30.9794465,10.9256667 31.0600923,10.2808519 L31.0600923,9.65233333 L31.0723565,9.65233333 L31.0723565,9.00566667 L31.0723565,8.14418519 L31.0723565,7.96677778 L31.0749579,7.96677778 L31.0786743,7.70085185 C31.0820191,7.40418519 31.1418531,7.12344444 31.2496286,6.86603704 C31.2730419,6.81085185 31.2983134,6.7552963 31.3261864,6.70233333 C31.5369062,6.32492593 31.8542866,6.01381481 32.2370755,5.80974074 C32.5522261,5.64196296 32.9116017,5.54714815 33.2936474,5.54714815 C33.3449337,5.54714815 33.3958484,5.55085185 33.4460198,5.55307407 L33.4460198,5.54159259 L34.3996474,5.54159259 C34.8957866,5.48011111 35.3053336,5.1427037 35.4688551,4.68788889 C35.5190265,4.54974074 35.5465278,4.40196296 35.5465278,4.24714815 C35.5465278,4.20825926 35.544298,4.16974074 35.5405816,4.13085185" id="Fill-34"></path><path d="M41.4505461,10.0198889 L40.2549809,10.0198889 C40.2549809,10.0176667 40.2549809,10.0147037 40.2557242,10.0132222 L40.2557242,10.0098889 L39.056071,10.0098889 L39.056071,10.0061852 C37.875743,9.9347037 36.9406973,8.9572963 36.9406973,7.76285185 C36.9406973,6.52248148 37.9496993,5.51618519 39.194321,5.51618519 C40.4393142,5.51618519 41.447573,6.52248148 41.447573,7.76285185 L41.447573,9.23803704 C41.4490595,9.23877778 41.4498028,9.23877778 41.4505461,9.23951852 L41.4505461,10.0198889 Z M42.8408505,10.1465556 L42.8408505,7.75914815 C42.8408505,5.75211111 41.208237,4.12507407 39.193206,4.12507407 C37.1789184,4.12507407 35.5463048,5.75211111 35.5463048,7.75914815 C35.5463048,9.69211111 37.059622,11.2721111 38.9691073,11.3876667 L38.9691073,11.3943333 L40.9109251,11.3943333 L40.9109251,11.401 C40.9101819,11.4043333 40.9101819,11.4072963 40.9098102,11.4102593 L42.8445669,11.4102593 L42.8445669,10.1472963 C42.8438237,10.1472963 42.8423371,10.1465556 42.8408505,10.1465556 Z" id="Fill-36"></path><path d="M45.0820243,7.49748148 L45.0775646,7.49748148 L45.0775646,3.91525926 L45.0801661,3.91525926 L45.0801661,3.37266667 L45.0801661,2.72674074 L45.0671587,2.72674074 L45.0671587,2.09748148 C44.9876278,1.45451852 44.4368576,0.955259259 43.7686493,0.955259259 C43.7285122,0.955259259 43.6913482,0.957481481 43.6530693,0.960444444 L43.6530693,2.17340741 L43.6530693,2.386 L43.6530693,2.98933333 L43.6530693,3.41118519 L43.6530693,3.59785185 L43.6530693,3.84674074 L43.6530693,4.39859259 C43.6489813,4.46933333 43.6471231,4.5397037 43.6471231,4.61118519 L43.6471231,4.61933333 L43.6471231,4.62562963 C43.6471231,4.69525926 43.6489813,4.766 43.6530693,4.836 L43.6530693,5.0597037 L43.6530693,5.27155556 L43.6530693,5.87562963 L43.6530693,6.296 L43.6530693,6.48414815 L43.6530693,7.28562963 C43.6489813,7.35562963 43.6471231,7.42674074 43.6471231,7.49748148 L43.6471231,7.50525926 L43.6471231,7.51118519 C43.6471231,9.52377778 45.2823381,11.1548889 47.3018287,11.1548889 C47.4307877,11.1548889 47.5571452,11.1463704 47.6827595,11.1337778 L48.3316425,11.1337778 L49.5491345,11.1337778 C49.5521076,11.0956296 49.5532225,11.0571111 49.5532225,11.0182222 C49.5532225,10.8641481 49.5272077,10.7156296 49.4766647,10.5774815 C49.3131432,10.1234074 48.9032245,9.78488889 48.4074571,9.72340741 L47.454201,9.72340741 L47.454201,9.71192593 C47.4032864,9.71525926 47.3527433,9.71822222 47.3022003,9.71822222 C46.919783,9.71822222 46.560779,9.62192593 46.2452568,9.45562963 C45.8624678,9.25155556 45.5447158,8.94044444 45.3347393,8.56303704 C45.3064947,8.50933333 45.2812232,8.45525926 45.2574382,8.3997037 C45.1563522,8.15711111 45.0972615,7.89155556 45.0887138,7.61340741 C45.0827675,7.58711111 45.0797944,7.56044444 45.0797944,7.53081481 C45.0797944,7.51933333 45.081281,7.50822222 45.0820243,7.49748148" id="Fill-38"></path><path d="M47.5441378,5.09655556 L45.9185854,5.09655556 C45.896287,5.09655556 45.8751036,5.09803704 45.8528052,5.10025926 L45.8528052,6.45877778 C45.8751036,6.461 45.896287,6.46285185 45.9185854,6.46285185 L47.5441378,6.46285185 L47.5441378,6.44692593 C48.1094019,6.3572963 48.541619,5.87062963 48.541619,5.28322222 C48.541619,5.22025926 48.5353011,5.1572963 48.5252669,5.09655556 L47.5441378,5.09655556 Z" id="Fill-40"></path><path d="M52.0096128,5.1537037 C51.9241357,4.47148148 51.3402896,3.94333333 50.6326874,3.94333333 C50.5914354,3.94333333 50.5498118,3.94555556 50.5104179,3.95 L50.5104179,6.70481481 C50.5159925,6.70481481 50.5215671,6.70481481 50.527885,6.70518519 L50.527885,7.11259259 L50.518594,7.11259259 L50.518594,7.14666667 L50.518594,9.96407407 L50.5252835,9.96407407 C50.5635624,10.3548148 50.7657345,10.6977778 51.0619314,10.9233333 C51.4829993,11.2107407 51.9914025,11.2077778 51.9914025,11.2077778 C51.9943756,11.2077778 51.9973487,11.2077778 52.0006935,11.207037 L52.0006935,9.81740741 L52.0096128,9.81740741 L52.0096128,5.1537037 Z" id="Fill-42"></path><path d="M56.5701905,9.78188889 C55.3471239,9.78188889 54.355589,8.79374074 54.355589,7.57559259 C54.355589,6.35744444 55.3471239,5.3692963 56.5701905,5.3692963 C57.7925137,5.3692963 58.7833054,6.35744444 58.7833054,7.57559259 C58.7833054,8.79374074 57.7925137,9.78188889 56.5701905,9.78188889 M56.5701905,3.91151852 C54.5395507,3.91151852 52.8935581,5.55225926 52.8935581,7.57559259 C52.8935581,9.59966667 54.5395507,11.2396667 56.5701905,11.2396667 C58.600087,11.2396667 60.2464512,9.59966667 60.2464512,7.57559259 C60.2464512,5.55225926 58.600087,3.91151852 56.5701905,3.91151852" id="Fill-44"></path><path d="M68.3439618,8.45159259 L68.3439618,7.79677778 C68.3525095,7.69418519 68.3480499,7.59011111 68.3480499,7.48381481 C68.3480499,6.81825926 68.1782105,6.19381481 67.8652898,5.65640741 L67.8645465,5.65640741 C67.8548839,5.63974074 67.843363,5.62233333 67.8329571,5.60492593 C67.6757535,5.35640741 66.9224397,4.27640741 65.5432844,3.939 C65.2738456,3.87492593 64.9925142,3.84159259 64.7026352,3.84159259 C62.6842595,3.84159259 61.0471863,5.47196296 61.0471863,7.48381481 C61.0471863,7.5552963 61.0497878,7.62492593 61.0538758,7.69418519 L61.0538758,8.51085185 L61.0538758,8.699 L61.0538758,9.11937037 L61.0538758,9.72344444 L61.0538758,9.93677778 L61.0538758,11.149 C61.0917831,11.151963 61.1304336,11.1549259 61.1690841,11.1549259 C61.8372925,11.1549259 62.3884343,10.6556667 62.4687085,10.011963 L62.4687085,9.06122222 L62.4724249,9.05196296 C62.4687085,9.00122222 62.4683368,8.96085185 62.4683368,8.90937037 C62.4683368,8.83048148 62.4649921,8.7527037 62.4724249,8.67566667 L62.4872905,7.42937037 C62.4910069,7.13344444 62.5508409,6.85381481 62.6586164,6.59677778 C62.9960653,5.78937037 63.7947192,5.22233333 64.7267918,5.22233333 C65.7398819,5.22233333 66.5965116,5.89307407 66.8718966,6.8152963 C66.9306157,7.00974074 66.9629484,7.21603704 66.9651782,7.42937037 L66.972611,7.42937037 L66.9793005,7.42937037 L66.9793005,7.63566667 L66.9793005,8.52455556 L66.9793005,9.06122222 L66.9793005,9.95048148 C67.0398778,10.4386296 67.3829013,10.8415926 67.8407616,10.9901111 C67.9645176,11.0297407 68.0957065,11.0515926 68.2317266,11.0515926 C68.2696339,11.0515926 68.3067978,11.0501111 68.3439618,11.0456667 L68.3439618,9.87677778 L68.3439618,9.62048148 L68.3439618,9.2227037 C68.3525095,9.11862963 68.3424753,9.01492593 68.3424753,8.90937037 C68.3424753,8.80455556 68.3525095,8.70122222 68.3439618,8.599 L68.3439618,8.45159259 Z" id="Fill-46"></path></g><path d="M69.0255492,23.3884815 L69.0255492,20.7762593 L69.0255492,16.9003333 C68.9036513,16.8895926 68.7810102,16.8829259 68.6565109,16.8829259 C66.5199538,16.8829259 64.7580095,18.4773704 64.5004632,20.537 L64.5004632,23.5758889 L64.4640425,23.5758889 C64.4740767,23.7358889 64.4818812,23.8977407 64.4818812,24.0610741 C64.4818812,28.0207037 61.2612508,31.2303333 57.2891648,31.2303333 C53.3163355,31.2303333 50.0949618,28.0207037 50.0949618,24.0610741 C50.0949618,23.8977407 50.1027663,23.7358889 50.1135438,23.5758889 L50.0800962,23.5758889 L50.0800962,20.7344074 C49.8849853,19.1695926 48.7882763,17.8832963 47.323644,17.4081111 C46.9297058,17.279963 46.5093812,17.2103333 46.0715895,17.2103333 C45.9519215,17.2103333 45.8329968,17.2166296 45.7148153,17.2266296 L45.7148153,20.9666296 L45.7148153,23.0584815 C45.6869423,23.3892222 45.6709618,23.724037 45.6709618,24.0610741 C45.6709618,26.8988519 46.6899981,29.4988519 48.3824457,31.519963 L39.4025136,31.519963 C40.0261251,30.9447778 40.5427044,30.2588519 40.9228919,29.4910741 C41.3090257,28.8832963 41.5609974,28.1829259 41.635697,27.4295926 L41.6498194,27.4295926 L41.7189444,4.58885185 L41.7189444,0.202555556 C41.5814376,0.191444444 41.4420727,0.183296296 41.300478,0.183296296 C38.8840761,0.183296296 36.8909719,1.98737037 36.5992347,4.317 L36.5992347,24.9307037 L36.5865989,24.9307037 C36.4933173,28.1621852 34.1910089,30.8403333 31.1316702,31.519963 L28.0827374,31.519963 L27.5680163,31.519963 C27.6393711,31.4973704 27.7103543,31.4721852 27.7798509,31.4462593 C29.4303032,30.824037 30.640734,29.3103333 30.8191211,27.4936667 L30.8425344,27.4936667 L30.8425344,17.8766296 L30.8425344,9.67959259 C30.862603,9.67737037 30.8830431,9.67662963 30.9034833,9.67440741 L30.9034833,0.267740741 C30.7659766,0.255888889 30.6262401,0.248111111 30.4853886,0.248111111 C28.0682434,0.248111111 26.0758825,2.05218519 25.783402,4.38144444 L25.783402,31.7388519 C25.7945512,31.7403333 25.8045855,31.7410741 25.8146198,31.7414444 C23.9014181,32.3555185 22.5300673,34.0092222 22.5300673,35.9551481 C22.5300673,36.0892222 22.5378718,36.2207037 22.5497642,36.3503333 L27.1283664,36.3503333 L50.9701735,36.3503333 L50.9701735,36.2707037 C52.0438409,36.1751481 53.0149356,35.7673704 53.774939,35.149963 C54.903609,35.5121852 56.1077219,35.7077407 57.3575465,35.7077407 C63.8136728,35.7077407 69.0459894,30.4944074 69.0459894,24.0610741 C69.0459894,23.8351481 69.0381849,23.6107037 69.0255492,23.3884815" id="Fill-48" fill="#139F49"></path><path d="M11.1622753,30.9505185 L11.1622753,30.9575556 L11.0504117,30.9575556 C10.9749688,30.9608889 10.8998976,30.9634815 10.8240831,30.9634815 C10.7482685,30.9634815 10.6731973,30.9608889 10.5988694,30.9575556 L6.03215968,30.9575556 L6.03215968,30.919037 L6.03215968,28.8560741 L6.03215968,25.8064444 L6.04851183,25.8064444 C6.24399435,23.3468148 8.30659516,21.4116296 10.8240831,21.4116296 C13.4712733,21.4116296 15.6171214,23.5497778 15.6171214,26.1871852 C15.6171214,28.7127407 13.6507753,30.7775556 11.1622753,30.9505185 M10.6464392,16.104963 C5.05734852,16.104963 0.526687903,20.6201481 0.526687903,26.1894074 L0.526687903,26.1897778 L0.526687903,32.8112593 C0.523343145,32.8131111 0.519626747,32.8131111 0.51553871,32.8145926 L0.51553871,40.9082963 C0.889408333,41.0153333 1.28446142,41.0745926 1.69289355,41.0745926 C4.0286496,41.0745926 5.9221543,39.1879259 5.9221543,36.8616296 C5.9221543,36.6679259 5.90728871,36.4782963 5.88238884,36.2923704 L5.88238884,36.2757037 L11.267821,36.2757037 L11.267821,36.2553333 C16.5674043,35.9342222 20.765819,31.5516296 20.765819,26.1894074 C20.765819,20.6201481 16.2344151,16.104963 10.6464392,16.104963" id="Fill-50" fill="#139F49"></path><path d="M55.2092084,25.2347407 C55.2092084,26.5228889 56.2561177,27.5665926 57.5494241,27.5665926 C58.841244,27.5665926 59.8888966,26.5228889 59.8888966,25.2347407 L59.8892682,25.2347407 L59.8892682,19.7021481 L59.8342655,19.7021481 C59.5287776,17.7791852 57.8630881,16.3080741 55.8469423,16.3080741 C55.6291614,16.3080741 55.4173267,16.3299259 55.2092084,16.3625185 L55.2092084,19.7021481 L55.2092084,25.2347407 Z" id="Fill-52" fill="#139F49"></path></g></g></svg> 